<?xml version="1.0" encoding="utf-8"?>
<!-- Generator: Adobe Illustrator 27.0.1, SVG Export Plug-In . SVG Version: 6.00 Build 0)  -->
<svg version="1.1" id="Camada_1" xmlns="http://www.w3.org/2000/svg" xmlns:xlink="http://www.w3.org/1999/xlink" x="0px" y="0px"
	 viewBox="0 0 1105.9 300.3" style="enable-background:new 0 0 1105.9 300.3;" xml:space="preserve">
<style type="text/css">
	.st0{fill:#E52421;}
	.st1{fill:#B2191B;}
	.st2{fill:#FFFFFF;}
</style>
<path class="st0" d="M149.5,155.8L0,228.5v46.2L149.5,202L149.5,155.8L149.5,155.8L149.5,155.8z"/>
<path class="st0" d="M149.5,19.1L149.5,19.1L46.2,69.4L0,91.8v114.1l3.1-1.5l43.1-20.9l103.3-50.3V87h-0.1v0.1L46.2,137.2v-21.7
	l103.3-50.2L149.5,19.1L149.5,19.1z"/>
<path class="st1" d="M252.9,183.4V206l-103.3-50.2v-0.1h-0.1V202l103.3,50.2l46.2,22.5v-115l-13.9-6.7L149.6,87v-0.1h-0.1v46.2
	L252.9,183.4z"/>
<path class="st1" d="M149.6,19.1L149.6,19.1l-0.1,46.2L299,138V91.8L149.6,19.1L149.6,19.1z"/>
<path class="st2" d="M419.6,189.1c0,9,1.8,16.8,5.4,23.3c3.8,6.5,8.9,11.6,15.2,15.2c6.4,3.5,13.6,5.2,21.8,5.2
	c8.3,0,15.6-1.7,22-5.2c6.5-3.6,11.6-8.7,15.2-15.2c3.8-6.5,5.7-14.3,5.7-23.3V86.7h10.5v103c0,11.2-2.4,20.8-7.2,28.7
	c-4.6,8-11,14.1-19.2,18.3c-8,4.2-17,6.3-27,6.3c-10,0-19.1-2.1-27.2-6.3c-8-4.2-14.3-10.3-18.9-18.3c-4.6-8-7-17.6-7-28.7v-103
	h10.7V189.1z M600.3,86.7c9.6,0,17.9,1.7,25,5c7.3,3.2,12.9,8.1,16.8,14.6c4.1,6.4,6.1,14.4,6.1,24.2c0,5.8-0.9,11.5-2.8,17
	c-1.7,5.4-4.6,10.2-8.7,14.6c-3.9,4.4-9,7.8-15.2,10.5c-6.1,2.6-13.5,3.9-22.2,3.9h-24v64.9h-10.7V86.7H600.3z M599.2,166.2
	c7.6,0,13.8-1.2,18.7-3.5c5.1-2.5,9-5.5,11.8-9.1c2.9-3.8,4.9-7.7,6.1-11.8c1.3-4.1,2-7.8,2-11.3c0-4.9-0.8-9.4-2.4-13.5
	c-1.6-4.1-4-7.6-7.2-10.5c-3-3-6.8-5.4-11.3-7c-4.5-1.7-9.7-2.6-15.5-2.6h-26.1v69.3H599.2z M677,69.5h30.5v171.8H677V69.5z
	 M732.2,192.5c0-9.7,2.3-18.4,6.8-26.1c4.6-7.7,11.1-13.7,19.4-18.1c8.3-4.5,17.8-6.8,28.5-6.8c10.9,0,20.3,2.3,28.3,6.8
	c8,4.4,14.1,10.4,18.3,18.1c4.4,7.7,6.5,16.4,6.5,26.1c0,9.7-2.2,18.5-6.5,26.4c-4.2,7.7-10.3,13.8-18.3,18.3
	c-8,4.5-17.6,6.8-28.8,6.8c-10.5,0-19.8-2-28.1-6.1c-8.1-4.1-14.5-9.9-19.2-17.6C734.5,212.5,732.2,203.3,732.2,192.5z M762.9,192.8
	c0,4.9,1,9.4,3.1,13.5c2,3.9,4.8,7,8.3,9.4s7.4,3.5,11.8,3.5c4.8,0,8.9-1.2,12.4-3.5c3.5-2.3,6.2-5.4,8.1-9.4
	c1.9-4.1,2.8-8.6,2.8-13.5c0-5.1-0.9-9.6-2.8-13.5c-1.9-3.9-4.6-7-8.1-9.4c-3.5-2.3-7.6-3.5-12.4-3.5c-4.4,0-8.3,1.2-11.8,3.5
	s-6.2,5.4-8.3,9.4C763.9,183.2,762.9,187.7,762.9,192.8z M904.9,243.9c-8.9,0-16.9-1.7-24.2-5.2c-7.1-3.6-12.8-9.1-17-16.6
	c-4.2-7.4-6.3-16.8-6.3-28.3c0-10.7,2.2-20,6.5-27.9c4.4-7.8,10.1-13.9,17.2-18.1c7.1-4.4,14.7-6.5,22.7-6.5
	c9.4,0,16.5,1.6,21.3,4.8c4.9,3,9,6.5,12.2,10.2l-1.3,3.7l2.8-13.9h28.3v95.2h-30.5v-20.7l2.4,6.5c-0.3,0-1.2,0.9-2.6,2.6
	c-1.5,1.6-3.6,3.6-6.5,5.9c-2.8,2.2-6.2,4.1-10.5,5.7C915.4,243.1,910.5,243.9,904.9,243.9z M913.6,219.1c3.6,0,6.9-0.5,9.8-1.5
	c2.9-1.2,5.4-2.8,7.6-4.8c2.2-2.2,4.1-4.9,5.7-8.1v-23.3c-1.2-3.2-2.9-5.9-5.2-8.1c-2.3-2.3-5.1-4.1-8.3-5.2c-3.2-1.3-6.8-2-10.7-2
	c-4.4,0-8.4,1.2-12.2,3.5c-3.6,2.2-6.5,5.2-8.7,9.1c-2.2,3.9-3.3,8.4-3.3,13.5s1.2,9.7,3.5,13.7c2.3,4.1,5.4,7.3,9.1,9.6
	C904.9,217.9,909.1,219.1,913.6,219.1z M1038.1,243.9c-8.9,0-16.8-2-23.7-6.1c-7-4.2-12.5-10.2-16.5-18.1
	c-3.9-7.8-5.9-17.1-5.9-27.9c0-10.7,2.2-19.9,6.5-27.4c4.4-7.6,10.3-13.3,17.9-17.2c7.5-3.9,16.1-5.9,25.7-5.9
	c6.1,0,11.9,0.9,17.4,2.8c5.7,1.9,10.4,4.8,14.2,8.7v9.6v-93h30.3v171.8h-30.5v-18.5l2.4,6.5c-4.9,4.1-10.5,7.6-16.6,10.5
	C1053.1,242.6,1046.1,243.9,1038.1,243.9z M1048.1,218.2c4.1,0,7.6-0.5,10.7-1.5c3.2-1.2,5.9-2.8,8.3-4.8c2.5-2.2,4.6-4.9,6.3-8.1
	v-23.3c-1.2-3.2-3-5.9-5.4-8.1c-2.3-2.3-5.2-4.1-8.7-5.2c-3.3-1.3-7-2-11.1-2c-4.5,0-8.7,1.2-12.6,3.5c-3.8,2.2-6.8,5.2-9.1,9.1
	c-2.3,3.9-3.5,8.4-3.5,13.5c0,5.1,1.2,9.7,3.5,13.7c2.3,4.1,5.4,7.3,9.1,9.6C1039.4,217.1,1043.6,218.2,1048.1,218.2z"/>
</svg>
